<svg width="27" height="27" viewBox="0 0 27 27" fill="none" xmlns="http://www.w3.org/2000/svg">
<path d="M4.5 17.25C4.08578 17.25 3.75 17.5858 3.75 18C3.75 18.4142 4.08578 18.75 4.5 18.75H15C15.4142 18.75 15.75 18.4142 15.75 18C15.75 17.5858 15.4142 17.25 15 17.25H4.5Z" fill="white"/>
<path d="M3.75 21.75C3.75 21.3358 4.08578 21 4.5 21H10.5C10.9142 21 11.25 21.3358 11.25 21.75C11.25 22.1642 10.9142 22.5 10.5 22.5H4.5C4.08578 22.5 3.75 22.1642 3.75 21.75Z" fill="white"/>
<path fill-rule="evenodd" clip-rule="evenodd" d="M4.5 2.25C4.5 1.00736 5.50733 0 6.75 0H12.75C13.9927 0 15 1.00736 15 2.25H17.25C18.4927 2.25 19.5 3.25732 19.5 4.5V24.75C19.5 25.9927 18.4927 27 17.25 27H2.25C1.00736 27 0 25.9927 0 24.75V4.5C0 3.25732 1.00736 2.25 2.25 2.25H4.5ZM1.5 12.75H6.12848L7.23082 10.9004L8.59208 15.8964L11.6172 12H14.826C15.2402 12 15.576 11.6642 15.576 11.25C15.576 10.8358 15.2402 10.5 14.826 10.5H10.8828L9.2496 12.6035L7.74997 7.09958L5.27625 11.25H1.5V4.5C1.5 4.08577 1.83579 3.75 2.25 3.75H4.5C4.5 4.99267 5.50733 6 6.75 6H12.75C13.9927 6 15 4.99267 15 3.75H17.25C17.6642 3.75 18 4.08577 18 4.5V24.75C18 25.1642 17.6642 25.5 17.25 25.5H2.25C1.83579 25.5 1.5 25.1642 1.5 24.75V12.75ZM13.5 2.25V3.75C13.5 4.16423 13.1642 4.5 12.75 4.5H6.75C6.33577 4.5 6 4.16423 6 3.75V2.25C6 1.83579 6.33577 1.5 6.75 1.5H12.75C13.1642 1.5 13.5 1.83579 13.5 2.25Z" fill="white"/>
<path fill-rule="evenodd" clip-rule="evenodd" d="M24.75 6C23.5073 6 22.5 7.00733 22.5 8.25V23.4771L24.75 26.8521L27 23.4771V8.25C27 7.00733 25.9927 6 24.75 6ZM24 8.25C24 7.83578 24.3358 7.5 24.75 7.5C25.1642 7.5 25.5 7.83578 25.5 8.25V9.75H24V8.25ZM24 23.0229V11.25H25.5V23.0229L24.75 24.1479L24 23.0229Z" fill="white"/>
</svg>
