<svg width="21" height="29" viewBox="0 0 21 29" fill="none" xmlns="http://www.w3.org/2000/svg">
<path d="M17.0303 13.2803C17.3232 12.9874 17.3232 12.5125 17.0303 12.2197C16.7374 11.9268 16.2625 11.9268 15.9697 12.2197L10.5 17.6893L8.03031 15.2197C7.73743 14.9268 7.26253 14.9268 6.96966 15.2197C6.67678 15.5125 6.67678 15.9874 6.96966 16.2803L10.5 19.8106L17.0303 13.2803Z" fill="white"/>
<path fill-rule="evenodd" clip-rule="evenodd" d="M21 7.5V23.25C21 24.4927 19.9927 25.5 18.75 25.5H5.25C4.00732 25.5 3 24.4927 3 23.25V2.25C3 1.00736 4.00732 0 5.25 0H13.5L21 7.5ZM13.5 8.25C13.0858 8.25 12.75 7.91423 12.75 7.5V1.5H5.25C4.83578 1.5 4.5 1.83579 4.5 2.25V23.25C4.5 23.6642 4.83578 24 5.25 24H18.75C19.1642 24 19.5 23.6642 19.5 23.25V8.25H13.5ZM14.25 2.87132L18.1287 6.75H14.25V2.87132Z" fill="white"/>
<path d="M1.5 4.5V24.75C1.5 25.9927 2.50732 27 3.75 27H18V28.5H3.75C1.67895 28.5 0 26.8211 0 24.75V4.5H1.5Z" fill="white"/>
</svg>
