<svg width="23" height="29" viewBox="0 0 23 29" fill="none" xmlns="http://www.w3.org/2000/svg">
<path fill-rule="evenodd" clip-rule="evenodd" d="M4.75 2.25C4.75 1.00736 5.75733 0 7 0H13C14.2427 0 15.25 1.00736 15.25 2.25H17.5C18.7427 2.25 19.75 3.25736 19.75 4.5V16.5H18.25V4.5C18.25 4.08579 17.9142 3.75 17.5 3.75H15.25C15.25 4.99267 14.2427 6 13 6H7C5.75733 6 4.75 4.99267 4.75 3.75H2.5C2.08578 3.75 1.75 4.08579 1.75 4.5V25.5C1.75 25.9142 2.08578 26.25 2.5 26.25H10V27.75H2.5C1.25733 27.75 0.25 26.7427 0.25 25.5V4.5C0.25 3.25736 1.25733 2.25 2.5 2.25H4.75ZM7 1.5C6.58578 1.5 6.25 1.83579 6.25 2.25V3.75C6.25 4.16421 6.58578 4.5 7 4.5H13C13.4142 4.5 13.75 4.16421 13.75 3.75V2.25C13.75 1.83579 13.4142 1.5 13 1.5H7ZM9.25 9V11.25H7V12.75H9.25V15H10.75V12.75H13V11.25H10.75V9H9.25ZM10 19.2488V22.2488C10 22.663 10.3358 22.9988 10.75 22.9988H13.75V21.4988H12.6435L13.5836 20.6154C13.5893 20.61 13.5949 20.6045 13.6005 20.5991C14.0483 20.151 14.6022 19.8237 15.2108 19.6477C15.8193 19.4716 16.4625 19.4527 17.0803 19.5925C17.6982 19.7323 18.2706 20.0263 18.744 20.4471C19.2174 20.8679 19.5766 21.4018 19.788 21.999L21.202 21.4986C20.9061 20.6626 20.4033 19.9151 19.7405 19.3259C19.0776 18.7368 18.2763 18.3251 17.4114 18.1294C16.5464 17.9337 15.6459 17.9603 14.794 18.2068C13.946 18.452 13.1736 18.9072 12.5481 19.53L11.5 20.5149V19.2488H10ZM18.75 23.499H21.75C22.1643 23.499 22.5 23.8348 22.5 24.249V27.249H21V25.9826L19.9518 26.9677C19.3264 27.5905 18.554 28.0456 17.706 28.2909C16.854 28.5373 15.9536 28.5639 15.0886 28.3682C14.2236 28.1725 13.4223 27.7609 12.7595 27.1717C12.0966 26.5826 11.5938 25.835 11.298 24.999L12.712 24.4986C12.9234 25.0958 13.2825 25.6297 13.7559 26.0505C14.2294 26.4713 14.8018 26.7654 15.4197 26.9052C16.0375 27.045 16.6806 27.0259 17.2892 26.85C17.8976 26.674 18.4517 26.3467 18.8995 25.8986C18.9051 25.8931 18.9107 25.8876 18.9164 25.8823L19.8564 24.999H18.75V23.499Z" fill="white"/>
</svg>
