<svg width="31" height="18" viewBox="0 0 31 18" fill="none" xmlns="http://www.w3.org/2000/svg">
<path fill-rule="evenodd" clip-rule="evenodd" d="M16.7941 4.84972C16.2582 4.6245 15.6695 4.5 15.0518 4.5C12.5665 4.5 10.5518 6.51472 10.5518 9C10.5518 11.4853 12.5665 13.5 15.0518 13.5C17.537 13.5 19.5518 11.4853 19.5518 9C19.5518 8.8014 19.5389 8.60572 19.514 8.41395C19.9658 8.00242 20.2494 7.40933 20.2494 6.75C20.2494 5.50732 19.2421 4.5 17.9994 4.5C17.556 4.5 17.1425 4.62825 16.7941 4.84972ZM15.0518 12C16.7087 12 18.0518 10.6568 18.0518 9C18.5618 8.98838 19.0298 8.8065 19.4017 8.50973C19.0171 8.81655 18.5297 9 17.9994 9C16.7567 9 15.7494 7.99268 15.7494 6.75C15.7494 6.52597 15.7821 6.30968 15.8431 6.10545C15.591 6.03668 15.3257 6 15.0518 6C13.3949 6 12.0518 7.34317 12.0518 9C12.0518 10.6568 13.3949 12 15.0518 12ZM18.7494 6.75C18.7494 7.16423 18.4136 7.5 17.9994 7.5C17.5852 7.5 17.2494 7.16423 17.2494 6.75C17.2494 6.33578 17.5852 6 17.9994 6C18.4136 6 18.7494 6.33578 18.7494 6.75Z" fill="white"/>
<path fill-rule="evenodd" clip-rule="evenodd" d="M0.897038 6.64815C3.45297 3.75473 8.31098 0.0695249 14.8664 0.000974894C14.9108 0.000299894 14.9554 0 15 0H15.0218H15.0523C21.7017 0 26.6274 3.7275 29.2075 6.64815C30.4035 8.00213 30.4035 9.99787 29.2075 11.3518C26.6274 14.2725 21.7017 18 15.0523 18H15.0218H15C14.9554 18 14.9108 17.9997 14.8664 17.999C8.31098 17.9305 3.45297 14.2453 0.897045 11.3518C-0.29901 9.99787 -0.299017 8.00213 0.897038 6.64815ZM2.02123 7.64122C3.43043 6.04597 5.56913 4.21845 8.3145 2.97457C6.87585 4.5699 6 6.68265 6 9C6 11.3174 6.87585 13.4301 8.3145 15.0254C5.56913 13.7816 3.43043 11.954 2.02123 10.3588C1.32625 9.5721 1.32625 8.4279 2.02123 7.64122ZM15.0213 1.5C14.9758 1.50015 14.9303 1.50037 14.8849 1.5009C10.7959 1.56232 7.5 4.8963 7.5 9C7.5 13.1037 10.7959 16.4377 14.8849 16.4991C14.9303 16.4996 14.9758 16.4998 15.0213 16.5C19.1537 16.4885 22.5 13.135 22.5 9C22.5 4.86495 19.1537 1.51147 15.0213 1.5ZM24 9C24 11.3557 23.095 13.4999 21.6136 15.1041C24.4438 13.8596 26.6441 11.988 28.0832 10.3588C28.7783 9.5721 28.7783 8.4279 28.0832 7.64122C26.6441 6.012 24.4438 4.14045 21.6136 2.8959C23.095 4.50008 24 6.64433 24 9Z" fill="white"/>
</svg>
